<?xml version="1.0" encoding="UTF-8" standalone="no"?>
<!DOCTYPE svg PUBLIC "-//W3C//DTD SVG 1.1//EN" "http://www.w3.org/Graphics/SVG/1.1/DTD/svg11.dtd">
<svg width="100%" height="100%" viewBox="0 0 1414 354" version="1.1" xmlns="http://www.w3.org/2000/svg" xmlns:xlink="http://www.w3.org/1999/xlink" xml:space="preserve" xmlns:serif="http://www.serif.com/" style="fill-rule:evenodd;clip-rule:evenodd;stroke-linejoin:round;stroke-miterlimit:2;">
    <g transform="matrix(1,0,0,1,-4185.67,-2586.55)">
        <g id="Outline" transform="matrix(1.55266,0,0,0.388165,901.222,2586.55)">
            <rect x="2115.37" y="0" width="910.434" height="910.434" style="fill:none;"/>
            <g id="Path" transform="matrix(1.96955,0,0,7.87819,2163.86,61.3074)">
                <path d="M104.905,68.718C104.905,69.925 104.905,71.13 104.896,72.335C104.89,73.362 104.878,74.389 104.852,75.401C104.821,77.841 104.606,80.275 104.21,82.682L104.205,82.713C103.75,85.369 102.903,87.94 101.689,90.343L101.682,90.358C99.198,95.235 95.233,99.2 90.357,101.684L90.34,101.692C87.938,102.904 85.368,103.751 82.716,104.204L82.688,104.209C80.28,104.606 77.849,104.822 75.416,104.852C74.386,104.878 73.356,104.894 72.326,104.899C71.123,104.905 69.921,104.905 68.72,104.905L31.28,104.905C30.079,104.905 28.879,104.905 27.675,104.899C26.646,104.895 25.616,104.88 24.601,104.854C22.159,104.822 19.722,104.607 17.312,104.209L17.288,104.205C14.634,103.753 12.062,102.904 9.66,101.692L9.643,101.684C4.768,99.2 0.803,95.237 -1.681,90.361L-1.69,90.344C-2.903,87.939 -3.751,85.367 -4.205,82.713L-4.21,82.683C-4.605,80.28 -4.82,77.851 -4.852,75.42C-4.878,74.39 -4.892,73.36 -4.896,72.33C-4.905,71.124 -4.905,69.923 -4.905,68.718L-4.905,31.282C-4.905,30.077 -4.905,28.871 -4.896,27.666C-4.892,26.64 -4.879,25.611 -4.852,24.597C-4.82,22.158 -4.606,19.724 -4.21,17.317L-4.205,17.287C-3.751,14.632 -2.904,12.062 -1.69,9.657L-1.682,9.639C0.802,4.763 4.767,0.798 9.643,-1.686L9.661,-1.695C12.062,-2.906 14.63,-3.752 17.28,-4.206L17.315,-4.212C19.72,-4.607 22.149,-4.821 24.578,-4.854C25.61,-4.881 26.642,-4.894 27.672,-4.899C28.876,-4.905 30.079,-4.905 31.278,-4.905L68.717,-4.905C69.921,-4.905 71.124,-4.905 72.325,-4.899C73.354,-4.895 74.384,-4.88 75.399,-4.854C77.839,-4.822 80.273,-4.607 82.682,-4.212L82.714,-4.207C85.368,-3.753 87.935,-2.906 90.338,-1.696L90.356,-1.686C95.234,0.797 99.199,4.762 101.684,9.639L101.693,9.657C102.905,12.061 103.751,14.632 104.205,17.286L104.21,17.315C104.605,19.719 104.82,22.149 104.852,24.58C104.878,25.61 104.892,26.64 104.896,27.668C104.905,28.874 104.905,30.077 104.905,31.28L104.905,68.718Z" style="fill:currentColor;"/>
            </g>
            <g transform="matrix(0.635117,0,-0.150709,2.54047,2454.43,-5377.7)">
                <path d="M641.85,2304.42C627.296,2304.42 608.98,2304.54 597.212,2304.63C597.208,2344.6 597.158,2383.65 596.601,2414.82L596.402,2425.99L584.944,2426.27C546.766,2427.19 515.052,2426.58 505.2,2426.27L486.887,2425.7L483.855,2304.72C468.97,2304.7 455.801,2304.64 443.566,2304.42L424.812,2304.09L424.598,2285.86C423.985,2233.82 424.295,2191.58 424.601,2179.64L424.886,2168.52L436.328,2168.3C530.598,2166.47 617.241,2167.38 634.936,2167.38L653.55,2167.38L654.171,2185.62C655.705,2230.74 654.178,2279.85 653.871,2293.05L653.606,2304.42L641.85,2304.42Z" style="fill:currentColor;fill-rule:nonzero;"/>
                <path d="M703.086,2367.28C698.212,2365.83 692.945,2364.09 687.488,2361.79C660.696,2350.56 646.531,2329.76 645.181,2306.45C642.701,2273.17 649.841,2244.95 680.573,2228.85C700.47,2218.24 725.246,2214.39 749.872,2213.39L749.961,2213.38C771.65,2212.76 793.024,2214.6 809.756,2215.22L828.263,2215.9L828.428,2233.8C828.733,2267.06 828.428,2300.01 828.428,2312.22L828.428,2328.3L811.505,2323.17C804.546,2321.06 798.212,2320.66 793.807,2320.74C810.003,2329.89 818.684,2339.72 823.271,2349.2C828.9,2360.83 828.716,2373.25 824.918,2386.37C820.724,2401.54 806.599,2416.46 774.426,2421.8C752.596,2425.89 713.194,2428.49 665.59,2424.7L649.294,2423.41L647.664,2407.51C646.385,2395.05 646.369,2382.58 646.369,2375.87L646.369,2360.53L662.563,2364.72C677.028,2368.46 693.578,2368.2 695.81,2368.14C698.277,2367.98 700.738,2367.67 703.086,2367.28Z" style="fill:currentColor;fill-rule:nonzero;"/>
                <path d="M921.818,2314.58C923.826,2313.31 924.661,2310.34 924.497,2306.4L924.497,2306.11C924.497,2305.2 924.497,2283.91 923.889,2227.97L923.764,2216.5L935.431,2216.13C973.92,2214.9 1009.33,2215.21 1020.42,2215.52L1039.06,2216.03L1039.23,2234.1C1040.15,2329.2 1040.14,2397.39 1039.53,2412.99L1039.1,2423.94L1027.78,2424.14C992.711,2424.76 962.565,2423.83 952.413,2423.53L933.636,2422.96L933.636,2422.61C932.44,2422.94 931.726,2423 931.681,2423C888.667,2431.1 862.229,2419.71 846.014,2403.04C835.854,2392.59 829.157,2379.28 825.228,2364.87C820.334,2346.92 819.714,2327.14 819.704,2311.11C819.457,2306.82 817.693,2273.46 819.717,2226.61L820.18,2215.89L831.227,2215.52C840.507,2215.21 868.965,2214.89 902.064,2216.13L920.732,2216.83L920.732,2234.84C920.732,2282.59 921.59,2311.41 921.639,2312.99C921.662,2313.43 921.73,2313.99 921.818,2314.58Z" style="fill:currentColor;fill-rule:nonzero;"/>
                <path d="M1137.51,2220.55C1146.38,2213.46 1153.4,2212.93 1153.43,2212.92L1153.5,2212.91C1191.69,2207.43 1214.96,2215.3 1229,2228.56C1238.33,2237.38 1244.66,2249.29 1248.14,2264.18C1252.12,2281.24 1252.48,2303.11 1252.48,2328.37L1252.48,2423.15L1240.94,2423.53C1231.39,2423.83 1203.37,2424.15 1169.8,2423.53L1150.73,2423.18L1150.84,2404.72C1151.14,2355.4 1150.24,2326.35 1150.23,2326.13L1150.23,2325.91C1150.23,2325.46 1150.15,2324.74 1150.05,2324.01C1147.26,2324.98 1146.19,2328.53 1146.16,2333.06C1146.23,2335.51 1146.8,2357.4 1147.38,2411.68L1147.5,2423.25L1135.71,2423.53C1097.17,2424.45 1061.07,2424.14 1050.06,2424.14L1031.05,2424.14L1030.82,2405.6C1029.6,2309.54 1029.9,2240.63 1029.9,2224.77L1029.9,2213.28L1041.67,2213.08C1077.95,2212.46 1108.7,2212.77 1118.85,2213.08L1137.43,2213.64L1137.51,2220.55Z" style="fill:currentColor;fill-rule:nonzero;"/>
                <path d="M1243.45,2226.6L1242.85,2212.58C1242.23,2198.02 1242.53,2183.45 1242.53,2176.95L1242.53,2165.25L1356.36,2165.25L1356.36,2183.97C1356.36,2197.3 1356.35,2212.81 1356.04,2219.63L1355.89,2222.76L1356.36,2222.77L1356.36,2240.93C1356.36,2307.35 1356.05,2394.77 1356.05,2412.75L1356.05,2424.34L1344.16,2424.45C1309.98,2424.75 1275.81,2424.45 1265.43,2424.45L1246.96,2424.45L1246.2,2406.32C1243.14,2333.26 1243.45,2251.94 1243.45,2234.83L1243.45,2226.6Z" style="fill:currentColor;fill-rule:nonzero;"/>
            </g>
        </g>
    </g>
</svg>
